Coordinates
version=1
nRows=26
nColumns=22
inDegrees=yes

Units are S.I. units (second, meters, Newtons, ...)
If the header above contains a line with 'inDegrees', this indicates whether rotational values are in degrees (yes) or radians (no).

endheader
time	pelvis_tilt	pelvis_list	pelvis_rotation	pelvis_tx	pelvis_ty	pelvis_tz	hip_flexion_r	hip_adduction_r	hip_rotation_r	knee_angle_r	ankle_angle_r	subtalar_angle_r	hip_flexion_l	hip_adduction_l	hip_rotation_l	knee_angle_l	ankle_angle_l	subtalar_angle_l	lumbar_extension	lumbar_bending	lumbar_rotation
      1.93000000	      3.42111620	     -4.02337819	     45.80091821	      0.57651635	      1.00555817	      0.73969709	     -3.29128392	      8.41672794	    -14.57226423	    -11.49099466	     14.41397939	     -0.55385090	     24.78803844	     -7.80365100	    -15.29530388	    -35.05710413	     11.09435092	      0.21343519	    -16.55086425	      6.09040536	      5.28888473
      1.94000000	      3.51970961	     -4.08014186	     46.32532976	      0.57996719	      1.00484814	      0.73591296	     -3.75225488	      8.62463241	    -14.97452257	    -11.25237930	     14.53159876	     -0.34661260	     25.07643756	     -7.71884684	    -16.23626869	    -33.74110343	     10.73394877	      0.43369061	    -16.57668330	      6.26310229	      5.38869595
      1.95000000	      3.62507628	     -4.16087463	     46.82738510	      0.58342134	      1.00406658	      0.73208367	     -4.17384823	      8.85007178	    -15.35752906	    -11.06530553	     14.63766271	     -0.14213371	     25.35934447	     -7.64497457	    -17.21294094	    -32.44482531	     10.36327984	      0.66254124	    -16.58913194	      6.45051994	      5.51007087
      1.96000000	      3.74413986	     -4.24142768	     47.30455166	      0.58690289	      1.00325102	      0.72819092	     -4.58689652	      9.08051185	    -15.70517427	    -10.92099892	     14.75099929	      0.09980076	     25.60447252	     -7.57536768	    -18.24868537	    -31.16658313	     10.03522774	      0.93778915	    -16.61223619	      6.63908812	      5.63441051
      1.97000000	      3.88073899	     -4.33030395	     47.76092259	      0.59038865	      1.00239354	      0.72423072	     -4.98471763	      9.32384267	    -16.01993816	    -10.82213889	     14.86301410	      0.37153759	     25.82321746	     -7.51983456	    -19.34583786	    -29.92374544	      9.76183944	      1.25316839	    -16.64520495	      6.84524205	      5.74652393
      1.98000000	      3.99775453	     -4.44529525	     48.17813369	      0.59387046	      1.00146289	      0.72022598	     -5.31111758	      9.55585042	    -16.31268660	    -10.79473907	     14.95344033	      0.57854246	     26.04296710	     -7.45370383	    -20.47324081	    -28.69466162	      9.46681233	      1.49645389	    -16.64568570	      7.04242042	      5.92439310
      1.99000000	      4.15003810	     -4.53088562	     48.57803476	      0.59740569	      1.00055964	      0.71611008	     -5.67790447	      9.78917537	    -16.55548303	    -10.79868641	     15.06137858	      0.87562428	     26.18389780	     -7.39302662	    -21.66844538	    -27.50833840	      9.27419979	      1.82753729	    -16.69198591	      7.23856677	      6.06728318
      2.00000000	      4.27898453	     -4.63902555	     48.93351383	      0.60095335	      0.99958769	      0.71193028	     -5.97304820	     10.00106583	    -16.77779193	    -10.88012552	     15.15187717	      1.11087232	     26.32009009	     -7.31598625	    -22.87077150	    -26.34525742	      9.09893924	      2.06887008	    -16.70249751	      7.41988124	      6.27907845
      2.01000000	      4.42647518	     -4.73056754	     49.26353189	      0.60454512	      0.99862300	      0.70764978	     -6.27864391	     10.20511243	    -16.96347501	    -11.00596016	     15.24397532	      1.38700506	     26.39734683	     -7.23531556	    -24.08662317	    -25.23184190	      9.00599129	      2.32004541	    -16.73975209	      7.59520527	      6.47805686
      2.02000000	      4.58256720	     -4.80496074	     49.56869349	      0.60820466	      0.99766443	      0.70324884	     -6.59422662	     10.39419488	    -17.10518909	    -11.16865489	     15.34318052	      1.70569008	     26.41425678	     -7.13610705	    -25.26164880	    -24.16222122	      8.97742079	      2.56869775	    -16.78452251	      7.75179770	      6.68368117
      2.03000000	      4.74173064	     -4.87386925	     49.84534344	      0.61190757	      0.99669158	      0.69874841	     -6.89428117	     10.56703521	    -17.22177180	    -11.38793484	     15.43234741	      2.03950082	     26.39022880	     -7.02318785	    -26.36483368	    -23.15058275	      9.00690660	      2.77561395	    -16.83431797	      7.89647727	      6.89248224
      2.04000000	      4.89621693	     -4.93507039	     50.08525221	      0.61571031	      0.99570229	      0.69413309	     -7.17689934	     10.71583266	    -17.28965249	    -11.67102443	     15.52612187	      2.37593818	     26.31836608	     -6.89230250	    -27.35977420	    -22.19512576	      9.09309561	      2.92285256	    -16.86819757	      8.01317346	      7.11185114
      2.05000000	      5.06293706	     -4.97914896	     50.30739177	      0.61959634	      0.99472973	      0.68939628	     -7.48122344	     10.85503475	    -17.34214963	    -11.97187751	     15.60883981	      2.77245704	     26.18882393	     -6.74876948	    -28.20618990	    -21.31235136	      9.19607199	      3.02782438	    -16.91657374	      8.11242567	      7.33085926
      2.06000000	      5.23354707	     -5.00936933	     50.50224299	      0.62358755	      0.99376377	      0.68452097	     -7.78409119	     10.97375391	    -17.36007925	    -12.32913416	     15.68016627	      3.21221781	     26.00405095	     -6.59238584	    -28.87040431	    -20.50695352	      9.30420333	      3.05116574	    -16.95754614	      8.19007208	      7.54398291
      2.07000000	      5.39043921	     -5.03393962	     50.66759561	      0.62771128	      0.99278100	      0.67952181	     -8.07776828	     11.06835806	    -17.34255357	    -12.71900376	     15.75302088	      3.66089486	     25.78598346	     -6.42727074	    -29.36276766	    -19.79475592	      9.39448500	      2.95594786	    -16.97117822	      8.23031311	      7.74711604
      2.08000000	      5.53937691	     -5.04626289	     50.80341045	      0.63196190	      0.99181180	      0.67439180	     -8.36541755	     11.13547694	    -17.29321349	    -13.15575542	     15.81614868	      4.13405489	     25.52640951	     -6.25858386	    -29.67173333	    -19.18355876	      9.43223924	      2.71710818	    -16.96935851	      8.23576063	      7.93563174
      2.09000000	      5.63973973	     -5.05017765	     50.89328810	      0.63637438	      0.99084250	      0.66912945	     -8.62070418	     11.14441024	    -17.19784129	    -13.63329112	     15.87779238	      4.56955274	     25.24229403	     -6.06443844	    -29.82803785	    -18.65488961	      9.36617606	      2.35788204	    -16.91160698	      8.16660976	      8.12863670
      2.10000000	      5.77426666	     -5.01925582	     50.98964937	      0.64084704	      0.98997074	      0.66373125	     -8.90809579	     11.14830954	    -17.08532112	    -14.16509835	     15.89417525	      5.14887640	     24.90214603	     -5.89486839	    -29.78744112	    -18.27708198	      9.20767837	      1.69863732	    -16.89490778	      8.09593161	      8.24275700
      2.11000000	      5.87379684	     -4.98874010	     51.06110436	      0.64545292	      0.98913001	      0.65818706	     -9.16109940	     11.11241390	    -16.95611468	    -14.73781342	     15.89562565	      5.72036795	     24.55992094	     -5.72825659	    -29.61770512	    -18.01299087	      8.95544774	      0.82243062	    -16.82651512	      7.97751386	      8.36376573
      2.12000000	      5.93083157	     -4.92461106	     51.11577343	      0.65015033	      0.98838776	      0.65250996	     -9.38664396	     11.00876287	    -16.78610994	    -15.37683694	     15.86418218	      6.30315398	     24.20536111	     -5.54310659	    -29.36568406	    -17.87515391	      8.55952104	     -0.25458396	    -16.73616578	      7.78503769	      8.42107422
      2.13000000	      5.96119777	     -4.83546348	     51.17310056	      0.65490834	      0.98776453	      0.64669208	     -9.59038918	     10.86147607	    -16.58509579	    -16.06927330	     15.77991194	      6.92275469	     23.85474948	     -5.35780524	    -29.03123238	    -17.87947503	      8.07371560	     -1.54285429	    -16.63019995	      7.54423928	      8.43214205
      2.14000000	      5.95326865	     -4.71213364	     51.23366963	      0.65971666	      0.98729023	      0.64073751	     -9.75766429	     10.65156126	    -16.37513749	    -16.84056813	     15.64452660	      7.57012057	     23.50829013	     -5.15838753	    -28.66027286	    -18.00790377	      7.52668651	     -2.95427160	    -16.51125461	      7.24009248	      8.37753257
      2.15000000	      5.91472375	     -4.55546821	     51.31817964	      0.66453195	      0.98699042	      0.63462639	     -9.89309398	     10.39267115	    -16.14860431	    -17.68060056	     15.43409536	      8.26316889	     23.17340288	     -4.94482062	    -28.25503850	    -18.26095679	      6.96751501	     -4.43886960	    -16.38446417	      6.88873168	      8.26108574
      2.16000000	      5.84395664	     -4.36395345	     51.42780017	      0.66934523	      0.98688686	      0.62836972	     -9.98819185	     10.08090503	    -15.92132367	    -18.60273833	     15.13671382	      8.99535574	     22.84864742	     -4.70989888	    -27.82185897	    -18.61783627	      6.44078018	     -5.87602135	    -16.25346717	      6.48753600	      8.08201867
      2.17000000	      5.75546649	     -4.14286676	     51.58224900	      0.67410439	      0.98698899	      0.62195186	    -10.04819608	      9.73969827	    -15.67067698	    -19.59776230	     14.72121292	      9.79625153	     22.53237745	     -4.45794132	    -27.37145198	    -19.06612637	      6.00914767	     -7.23734036	    -16.12818082	      6.06596828	      7.83751317
      2.18000000	      5.63700936	     -3.88953228	     51.77756133	      0.67879183	      0.98728595	      0.61537767	    -10.05031714	      9.34378893	    -15.45721044	    -20.70105977	     14.22006596	     10.63442495	     22.21465797	     -4.16332382	    -26.88553613	    -19.55940368	      5.68398803	     -8.36841600	    -16.00526889	      5.60766628	      7.55126816
